<svg xmlns="http://www.w3.org/2000/svg" viewBox="0 0 512 512" width="512" height="512">
  <rect width="512" height="512" rx="128" fill="#FFFFFF"/>
  <rect x="16" y="16" width="480" height="480" rx="112" fill="#F7F9F9" stroke="#E5EAEA" stroke-width="8"/>
  <path d="M356 168c-18-24-46-38-84-38-56 0-96 34-96 82 0 46 32 68 84 80l24 6c34 8 50 20 50 44 0 28-26 46-64 46-44 0-74-18-94-46l-32 32c26 36 68 60 126 60 80 0 128-42 128-98 0-52-36-76-92-90l-24-6c-30-7-42-17-42-36 0-24 20-38 52-38 34 0 58 12 74 30l34-28z" fill="#009688"/>
  <circle cx="396" cy="148" r="20" fill="#009688"/>
</svg>
